<svg xmlns="http://www.w3.org/2000/svg" width="1012" height="332" viewBox="0 0 1012 332" role="img" aria-labelledby="title desc">
    <title id="title">naoigcat GitHub public repository stats</title>
    <desc id="desc">Public commits, pull requests, issues, and contribution totals for naoigcat, with top repository languages.</desc>
    <style>
        .bg { fill: #ffffff; }
        .border { fill: none; stroke: #d0d7de; }
        .title { fill: #24292f; font: 700 20px -apple-system, BlinkMacSystemFont, "Segoe UI", sans-serif; }
        .section { fill: #24292f; font: 700 14px -apple-system, BlinkMacSystemFont, "Segoe UI", sans-serif; }
        .column { fill: #6e7781; font: 700 11px -apple-system, BlinkMacSystemFont, "Segoe UI", sans-serif; }
        .metric { fill: #24292f; font: 700 13px -apple-system, BlinkMacSystemFont, "Segoe UI", sans-serif; }
        .value { fill: #0969da; font: 700 18px -apple-system, BlinkMacSystemFont, "Segoe UI", sans-serif; }
        .language-name { fill: #24292f; font: 600 12px -apple-system, BlinkMacSystemFont, "Segoe UI", sans-serif; }
        .language-percent { fill: #57606a; font: 600 11px -apple-system, BlinkMacSystemFont, "Segoe UI", sans-serif; }
        .language-bar-bg { fill: #eaeef2; }
        .empty { fill: #6e7781; font: 500 12px -apple-system, BlinkMacSystemFont, "Segoe UI", sans-serif; }
        .divider { stroke: #d8dee4; stroke-width: 1; }
        .footnote { fill: #6e7781; font: 500 10px -apple-system, BlinkMacSystemFont, "Segoe UI", sans-serif; }
    </style>
    <rect class="bg" x="0.5" y="0.5" width="1011" height="331" rx="6" />
    <rect class="border" x="0.5" y="0.5" width="1011" height="331" rx="6" />
    <text x="30" y="42" class="title">GitHub Stats</text>
    <text x="30" y="82" class="column">Metric</text>
    <text x="300" y="82" class="column" text-anchor="end">Total</text>
    <text x="430" y="82" class="column" text-anchor="end">2026</text>
    <text x="550" y="82" class="column" text-anchor="end">2025</text>
    <text x="602" y="82" class="section">Top Languages</text>
    <line x1="580" y1="60" x2="580" y2="274" class="divider" />

    <g>
        <line x1="30" y1="92" x2="560" y2="92" class="divider" />
        <text x="30" y="129" class="metric">Commits</text>
        <text x="300" y="131" class="value" text-anchor="end">621</text>
        <text x="430" y="131" class="value" text-anchor="end">109</text>
        <text x="550" y="131" class="value" text-anchor="end">39</text>
    </g>
    <g>
        <line x1="30" y1="138" x2="560" y2="138" class="divider" />
        <text x="30" y="175" class="metric">Pull Requests</text>
        <text x="300" y="177" class="value" text-anchor="end">4</text>
        <text x="430" y="177" class="value" text-anchor="end">0</text>
        <text x="550" y="177" class="value" text-anchor="end">0</text>
    </g>
    <g>
        <line x1="30" y1="184" x2="560" y2="184" class="divider" />
        <text x="30" y="221" class="metric">Issues</text>
        <text x="300" y="223" class="value" text-anchor="end">5</text>
        <text x="430" y="223" class="value" text-anchor="end">0</text>
        <text x="550" y="223" class="value" text-anchor="end">0</text>
    </g>
    <g>
        <line x1="30" y1="230" x2="560" y2="230" class="divider" />
        <text x="30" y="267" class="metric">Contributions</text>
        <text x="300" y="269" class="value" text-anchor="end">630</text>
        <text x="430" y="269" class="value" text-anchor="end">109</text>
        <text x="550" y="269" class="value" text-anchor="end">39</text>
    </g>

    <g>
        <circle cx="607" cy="108" r="5" fill="#701516" />
        <text x="620" y="112" class="language-name">Ruby</text>
        <text x="982" y="112" class="language-percent" text-anchor="end">55%</text>
        <rect x="602" y="121" width="350" height="6" rx="3" class="language-bar-bg" />
        <rect x="602" y="121" width="193" height="6" rx="3" fill="#701516" />
    </g>
    <g>
        <circle cx="607" cy="142" r="5" fill="#3178c6" />
        <text x="620" y="146" class="language-name">TypeScript</text>
        <text x="982" y="146" class="language-percent" text-anchor="end">13%</text>
        <rect x="602" y="155" width="350" height="6" rx="3" class="language-bar-bg" />
        <rect x="602" y="155" width="46" height="6" rx="3" fill="#3178c6" />
    </g>
    <g>
        <circle cx="607" cy="176" r="5" fill="#384d54" />
        <text x="620" y="180" class="language-name">Dockerfile</text>
        <text x="982" y="180" class="language-percent" text-anchor="end">11%</text>
        <rect x="602" y="189" width="350" height="6" rx="3" class="language-bar-bg" />
        <rect x="602" y="189" width="38" height="6" rx="3" fill="#384d54" />
    </g>
    <g>
        <circle cx="607" cy="210" r="5" fill="#f05138" />
        <text x="620" y="214" class="language-name">Swift</text>
        <text x="982" y="214" class="language-percent" text-anchor="end">8.4%</text>
        <rect x="602" y="223" width="350" height="6" rx="3" class="language-bar-bg" />
        <rect x="602" y="223" width="29" height="6" rx="3" fill="#f05138" />
    </g>
    <g>
        <circle cx="607" cy="244" r="5" fill="#4f5d95" />
        <text x="620" y="248" class="language-name">PHP</text>
        <text x="982" y="248" class="language-percent" text-anchor="end">4.2%</text>
        <rect x="602" y="257" width="350" height="6" rx="3" class="language-bar-bg" />
        <rect x="602" y="257" width="15" height="6" rx="3" fill="#4f5d95" />
    </g>
    <line x1="30" y1="278" x2="982" y2="278" class="divider" />
    <text x="30" y="302" class="footnote">Updated May 6, 2026 (Asia/Tokyo) · Public activity and owned repository languages.</text>
</svg>
